<svg width="174" height="49" viewBox="0 0 174 49" fill="none" xmlns="http://www.w3.org/2000/svg">
<path d="M170.562 12.5315C170.518 12.0033 170.073 11.5986 169.543 11.6038H161.793V8.6671C161.793 3.88028 157.913 0 153.126 0C148.339 0 144.459 3.88028 144.459 8.6671V11.6038H136.71C136.182 11.6058 135.741 12.0065 135.69 12.5315L133.018 43.2439C132.897 44.6678 133.378 46.0778 134.346 47.1306C135.313 48.1829 136.677 48.7815 138.106 48.7803H168.156C169.585 48.7815 170.949 48.1829 171.916 47.1306C172.884 46.0778 173.366 44.6678 173.244 43.2439L170.562 12.5315ZM146.498 8.6671C146.498 5.00669 149.466 2.03932 153.126 2.03932C156.786 2.03932 159.754 5.00669 159.754 8.6671V11.6038H146.498V8.6671ZM170.409 45.752C169.833 46.3869 169.013 46.7466 168.156 46.741H138.096C137.239 46.7414 136.42 46.3817 135.84 45.75C135.261 45.1179 134.973 44.2715 135.047 43.4172L137.637 13.6431H144.459V20.0056C142.819 20.5103 141.795 22.1382 142.05 23.8349C142.305 25.5313 143.763 26.786 145.479 26.786C147.194 26.786 148.652 25.5313 148.907 23.8349C149.162 22.1382 148.138 20.5103 146.498 20.0056V13.6328H159.754V20.0056C158.114 20.5103 157.09 22.1382 157.345 23.8349C157.6 25.5313 159.058 26.786 160.774 26.786C162.489 26.786 163.946 25.5313 164.202 23.8349C164.457 22.1382 163.433 20.5103 161.793 20.0056V13.6328H168.605L171.194 43.4068C171.278 44.2648 170.992 45.1175 170.409 45.752ZM145.326 21.9024C145.427 21.9159 145.53 21.9159 145.632 21.9024C146.386 21.9836 146.945 22.6408 146.904 23.398C146.863 24.1556 146.237 24.749 145.479 24.749C144.72 24.749 144.094 24.1556 144.053 23.398C144.012 22.6408 144.571 21.9836 145.326 21.9024ZM160.621 21.9024C160.722 21.9159 160.825 21.9159 160.926 21.9024C161.68 21.9836 162.24 22.6408 162.199 23.398C162.158 24.1556 161.532 24.749 160.774 24.749C160.015 24.749 159.389 24.1556 159.348 23.398C159.307 22.6408 159.866 21.9836 160.621 21.9024Z" fill="black"/>
<path d="M9.48 37.21C7.94 37.21 6.56 36.96 5.34 36.46C4.12 35.96 3.14 35.22 2.4 34.24C1.68 33.26 1.3 32.08 1.26 30.7H6.72C6.8 31.48 7.07 32.08 7.53 32.5C7.99 32.9 8.59 33.1 9.33 33.1C10.09 33.1 10.69 32.93 11.13 32.59C11.57 32.23 11.79 31.74 11.79 31.12C11.79 30.6 11.61 30.17 11.25 29.83C10.91 29.49 10.48 29.21 9.96 28.99C9.46 28.77 8.74 28.52 7.8 28.24C6.44 27.82 5.33 27.4 4.47 26.98C3.61 26.56 2.87 25.94 2.25 25.12C1.63 24.3 1.32 23.23 1.32 21.91C1.32 19.95 2.03 18.42 3.45 17.32C4.87 16.2 6.72 15.64 9 15.64C11.32 15.64 13.19 16.2 14.61 17.32C16.03 18.42 16.79 19.96 16.89 21.94H11.34C11.3 21.26 11.05 20.73 10.59 20.35C10.13 19.95 9.54 19.75 8.82 19.75C8.2 19.75 7.7 19.92 7.32 20.26C6.94 20.58 6.75 21.05 6.75 21.67C6.75 22.35 7.07 22.88 7.71 23.26C8.35 23.64 9.35 24.05 10.71 24.49C12.07 24.95 13.17 25.39 14.01 25.81C14.87 26.23 15.61 26.84 16.23 27.64C16.85 28.44 17.16 29.47 17.16 30.73C17.16 31.93 16.85 33.02 16.23 34C15.63 34.98 14.75 35.76 13.59 36.34C12.43 36.92 11.06 37.21 9.48 37.21ZM36.097 28.36C36.097 28.84 36.067 29.34 36.007 29.86H24.397C24.477 30.9 24.807 31.7 25.387 32.26C25.987 32.8 26.717 33.07 27.577 33.07C28.857 33.07 29.747 32.53 30.247 31.45H35.707C35.427 32.55 34.917 33.54 34.177 34.42C33.457 35.3 32.547 35.99 31.447 36.49C30.347 36.99 29.117 37.24 27.757 37.24C26.117 37.24 24.657 36.89 23.377 36.19C22.097 35.49 21.097 34.49 20.377 33.19C19.657 31.89 19.297 30.37 19.297 28.63C19.297 26.89 19.647 25.37 20.347 24.07C21.067 22.77 22.067 21.77 23.347 21.07C24.627 20.37 26.097 20.02 27.757 20.02C29.377 20.02 30.817 20.36 32.077 21.04C33.337 21.72 34.317 22.69 35.017 23.95C35.737 25.21 36.097 26.68 36.097 28.36ZM30.847 27.01C30.847 26.13 30.547 25.43 29.947 24.91C29.347 24.39 28.597 24.13 27.697 24.13C26.837 24.13 26.107 24.38 25.507 24.88C24.927 25.38 24.567 26.09 24.427 27.01H30.847ZM46.6934 15.94C48.9134 15.94 50.8534 16.38 52.5134 17.26C54.1734 18.14 55.4534 19.38 56.3534 20.98C57.2734 22.56 57.7334 24.39 57.7334 26.47C57.7334 28.53 57.2734 30.36 56.3534 31.96C55.4534 33.56 54.1634 34.8 52.4834 35.68C50.8234 36.56 48.8934 37 46.6934 37H38.8034V15.94H46.6934ZM46.3634 32.56C48.3034 32.56 49.8134 32.03 50.8934 30.97C51.9734 29.91 52.5134 28.41 52.5134 26.47C52.5134 24.53 51.9734 23.02 50.8934 21.94C49.8134 20.86 48.3034 20.32 46.3634 20.32H43.9334V32.56H46.3634ZM76.3802 28.36C76.3802 28.84 76.3502 29.34 76.2902 29.86H64.6802C64.7602 30.9 65.0902 31.7 65.6702 32.26C66.2702 32.8 67.0002 33.07 67.8602 33.07C69.1402 33.07 70.0302 32.53 70.5302 31.45H75.9902C75.7102 32.55 75.2002 33.54 74.4602 34.42C73.7402 35.3 72.8302 35.99 71.7302 36.49C70.6302 36.99 69.4002 37.24 68.0402 37.24C66.4002 37.24 64.9402 36.89 63.6602 36.19C62.3802 35.49 61.3802 34.49 60.6602 33.19C59.9402 31.89 59.5802 30.37 59.5802 28.63C59.5802 26.89 59.9302 25.37 60.6302 24.07C61.3502 22.77 62.3502 21.77 63.6302 21.07C64.9102 20.37 66.3802 20.02 68.0402 20.02C69.6602 20.02 71.1002 20.36 72.3602 21.04C73.6202 21.72 74.6002 22.69 75.3002 23.95C76.0202 25.21 76.3802 26.68 76.3802 28.36ZM71.1302 27.01C71.1302 26.13 70.8302 25.43 70.2302 24.91C69.6302 24.39 68.8802 24.13 67.9802 24.13C67.1202 24.13 66.3902 24.38 65.7902 24.88C65.2102 25.38 64.8502 26.09 64.7102 27.01H71.1302ZM84.2166 23.05C84.8166 22.13 85.5666 21.41 86.4666 20.89C87.3666 20.35 88.3666 20.08 89.4666 20.08V25.51H88.0566C86.7766 25.51 85.8166 25.79 85.1766 26.35C84.5366 26.89 84.2166 27.85 84.2166 29.23V37H79.0866V20.26H84.2166V23.05ZM107.699 28.36C107.699 28.84 107.669 29.34 107.609 29.86H95.9986C96.0786 30.9 96.4086 31.7 96.9886 32.26C97.5886 32.8 98.3186 33.07 99.1786 33.07C100.459 33.07 101.349 32.53 101.849 31.45H107.309C107.029 32.55 106.519 33.54 105.779 34.42C105.059 35.3 104.149 35.99 103.049 36.49C101.949 36.99 100.719 37.24 99.3586 37.24C97.7186 37.24 96.2586 36.89 94.9786 36.19C93.6986 35.49 92.6986 34.49 91.9786 33.19C91.2586 31.89 90.8986 30.37 90.8986 28.63C90.8986 26.89 91.2486 25.37 91.9486 24.07C92.6686 22.77 93.6686 21.77 94.9486 21.07C96.2286 20.37 97.6986 20.02 99.3586 20.02C100.979 20.02 102.419 20.36 103.679 21.04C104.939 21.72 105.919 22.69 106.619 23.95C107.339 25.21 107.699 26.68 107.699 28.36ZM102.449 27.01C102.449 26.13 102.149 25.43 101.549 24.91C100.949 24.39 100.199 24.13 99.2986 24.13C98.4386 24.13 97.7086 24.38 97.1086 24.88C96.5286 25.38 96.1686 26.09 96.0286 27.01H102.449ZM119.735 32.65V37H117.125C115.265 37 113.815 36.55 112.775 35.65C111.735 34.73 111.215 33.24 111.215 31.18V24.52H109.175V20.26H111.215V16.18H116.345V20.26H119.705V24.52H116.345V31.24C116.345 31.74 116.465 32.1 116.705 32.32C116.945 32.54 117.345 32.65 117.905 32.65H119.735Z" fill="black"/>
</svg>
